PathFileType  4	(X/Y/Z) C:\Users\antoi\Documents\MyRepositories\mobilecap\ResultsAnalysis
DataRate	CameraRate	NumFrames	NumMarkers	Units	OrigDataRate	OrigDataStartFrame	OrigNumFrames
100.0	100.0	6	51	mm	100.0	238	271
Frame#	Time	r_knee			r_shank_antsup			r_ankle			r_calc			r_5meta			r_toe			L_knee			L_shank_antsup			L_ankle			L_calc			L_5meta			L_toe			r_sh2			r_sh3			r_sh4			L_sh2			L_sh3			r_thigh1			r_thigh2			r_thigh3			r_thigh4			r_thigh5			L_thigh1			L_thigh2			L_thigh3			L_thigh4			r.ASIS			r.PSIS			L.ASIS			L.PSIS			C7			R_Shoulder			L_Shoulder			R_Sternum			L_Sternum			R_humerus			R_elbow_med			R_elbow_lat			R_forearm			R_wrist_radius			R_wrist_ulna			L_humerus			L_elbow_med			L_elbow_lat			L_forearm			L_wrist_radius			L_wrist_ulna			R_HJC			L_HJC			R_HJC_reg			L_HJC_reg			
		X1	Y1	Z1	X2	Y2	Z2	X3	Y3	Z3	X4	Y4	Z4	X5	Y5	Z5	X6	Y6	Z6	X7	Y7	Z7	X8	Y8	Z8	X9	Y9	Z9	X10	Y10	Z10	X11	Y11	Z11	X12	Y12	Z12	X13	Y13	Z13	X14	Y14	Z14	X15	Y15	Z15	X16	Y16	Z16	X17	Y17	Z17	X18	Y18	Z18	X19	Y19	Z19	X20	Y20	Z20	X21	Y21	Z21	X22	Y22	Z22	X23	Y23	Z23	X24	Y24	Z24	X25	Y25	Z25	X26	Y26	Z26	X27	Y27	Z27	X28	Y28	Z28	X29	Y29	Z29	X30	Y30	Z30	X31	Y31	Z31	X32	Y32	Z32	X33	Y33	Z33	X34	Y34	Z34	X35	Y35	Z35	X36	Y36	Z36	X37	Y37	Z37	X38	Y38	Z38	X39	Y39	Z39	X40	Y40	Z40	X41	Y41	Z41	X42	Y42	Z42	X43	Y43	Z43	X44	Y44	Z44	X45	Y45	Z45	X46	Y46	Z46	X47	Y47	Z47	X48	Y48	Z48	X49	Y49	Z49	X50	Y50	Z50	X51	Y51	Z51	

238	2.37000000	-253.50662	807.67077	-433.59623	-224.32955	752.64648	-418.64236	-244.26293	415.65165	-398.04697	-281.42677	429.50401	-462.09518	-135.30745	302.92651	-396.49537	-197.36227	301.34273	-371.71374	-224.71776	785.21436	-771.82538	-184.20371	708.99478	-775.72570	-208.67867	400.32204	-802.19481	-256.35596	404.13761	-739.35531	-157.68730	285.22432	-821.92790	-92.02263	283.21052	-788.79718	-232.31518	641.91423	-394.99024	-300.17186	759.92347	-417.03337	-312.77120	641.17883	-406.12977	-270.21230	719.76518	-799.67814	-263.77654	597.99470	-816.53340	-207.47042	1062.32906	-399.34659	-205.24890	948.58307	-406.26561	-265.96292	926.00603	-417.37357	-313.37491	1059.40034	-439.03371	-305.52681	942.95767	-452.33691	-176.68449	1064.04729	-809.26979	-171.91628	925.85180	-791.95524	-287.45665	1062.22887	-792.32497	-283.09378	925.65125	-762.06522	-139.97588	1260.24466	-499.67957	-331.81055	1306.03534	-590.89247	-124.90280	1247.39006	-711.67400	-322.12922	1303.16962	-668.35880	-202.10978	1720.90787	-593.95477	-145.23961	1691.86712	-463.10944	-141.48013	1704.16007	-722.70107	-79.35633	1660.14913	-572.22884	-76.94332	1661.63561	-606.04659	-79.01296	1625.55256	-390.15193	-56.95884	1420.92473	-302.61857	-16.52914	1473.61942	-267.31867	58.04456	1493.80301	-325.23540	158.24951	1488.07956	-420.10574	180.31792	1469.48834	-393.57098	-98.94194	1664.99404	-817.29499	-43.71224	1471.55002	-934.22656	-21.64161	1540.04949	-957.36376	64.79373	1557.23556	-896.70381	145.72509	1562.23746	-802.74622	168.54291	1537.32764	-824.62677	-228.99031	1181.91743	-505.06872	-210.98342	1171.79786	-711.54550	-216.02219	1197.57742	-535.82196	-198.60862	1192.42102	-675.16869	
239	2.38000000	-252.68212	800.74680	-432.34372	-223.86900	745.56201	-417.83504	-244.32216	408.84575	-396.51062	-281.95692	422.22760	-460.53411	-135.67794	296.32376	-394.48161	-197.47785	295.06009	-369.31371	-224.72581	778.96879	-772.99295	-183.98362	702.14618	-776.24318	-210.21932	393.74851	-803.36855	-258.85040	397.56013	-741.01491	-159.53910	278.55161	-822.47856	-94.37463	276.10482	-788.28488	-232.00803	635.04202	-393.68448	-299.73686	752.89100	-416.28476	-312.40316	634.46956	-404.92850	-269.73228	713.48747	-801.01130	-263.88802	591.79510	-817.93148	-207.90023	1055.60330	-399.41460	-205.00491	941.83557	-406.09280	-265.21120	919.34061	-416.22604	-313.85834	1051.89245	-438.51527	-305.26114	935.50340	-451.59819	-178.84765	1057.76078	-810.26595	-173.38618	919.49154	-792.96423	-289.46146	1055.69966	-791.91414	-284.16479	919.05934	-762.08026	-141.10135	1253.17358	-499.79934	-332.57849	1299.89712	-591.08712	-126.09580	1240.76322	-712.08430	-322.52681	1297.31500	-668.99465	-204.72408	1714.29194	-593.17124	-147.67155	1684.83567	-461.76355	-143.84738	1697.89191	-722.30674	-81.80399	1653.95549	-570.74604	-79.56117	1655.14040	-605.04415	-81.16308	1616.37866	-389.84352	-62.75905	1410.49126	-304.13291	-21.12218	1461.87963	-268.79371	54.80394	1479.73247	-325.90832	155.98964	1470.24317	-419.46721	177.27135	1450.99873	-392.32944	-101.53105	1656.22484	-817.03545	-52.98489	1459.26838	-931.00633	-29.07698	1526.56398	-955.57501	58.74907	1541.42827	-896.21523	141.35476	1544.58065	-803.41590	163.01880	1518.68014	-825.44389	-230.42727	1175.20938	-505.65435	-212.23505	1165.52839	-712.13557	-217.57262	1190.56800	-536.57241	-199.57883	1185.94560	-676.03712	
240	2.39000000	-251.83584	792.96027	-431.00896	-222.63006	737.51663	-416.84716	-244.22681	401.11513	-395.06227	-282.81973	414.05197	-458.66169	-135.55455	288.80291	-393.44853	-197.06558	287.84458	-367.29994	-224.13296	771.56141	-774.12758	-183.14296	694.32236	-776.49802	-211.59740	386.00703	-804.52639	-261.49482	390.15011	-743.21863	-161.26490	270.63368	-822.50729	-96.83622	267.87395	-786.76420	-230.84797	627.13632	-392.72048	-298.47408	745.27333	-414.52750	-311.43537	626.92299	-403.10719	-268.38932	706.32490	-802.80269	-263.39233	584.50812	-819.93103	-208.47457	1047.67091	-399.45098	-205.11295	934.07548	-405.85050	-264.91622	911.43517	-415.40128	-314.51779	1043.46585	-438.24290	-305.26332	927.07249	-451.00394	-180.67947	1050.37263	-810.80886	-174.39578	912.23964	-794.00555	-291.23028	1047.91379	-792.30719	-284.90496	911.35175	-762.50055	-142.22285	1245.10747	-499.82186	-333.43560	1292.58702	-591.32860	-127.23620	1233.23729	-712.35622	-323.13569	1290.20527	-669.59692	-207.27359	1706.75924	-592.37484	-150.04450	1676.85963	-460.49520	-146.09209	1690.56547	-721.88870	-84.14938	1646.63915	-570.07512	-81.95521	1647.83112	-604.28860	-83.55634	1606.48131	-389.34131	-68.71402	1399.42160	-305.64869	-25.75275	1449.47678	-270.24521	51.42602	1464.87515	-326.41614	153.51070	1451.56469	-418.74729	173.90966	1431.98144	-391.02337	-104.43129	1645.97259	-816.63895	-62.05050	1446.20473	-927.55719	-36.47258	1512.20067	-953.62709	52.62866	1524.75127	-895.71773	136.88663	1526.00707	-804.06411	157.29849	1499.17695	-826.20747	-231.81637	1167.41936	-506.18842	-213.35328	1158.21108	-712.66792	-218.99866	1182.69060	-537.03536	-200.63098	1178.44418	-676.60684	
241	2.40000000	-250.95500	784.13335	-429.93352	-220.68805	728.49948	-416.06687	-244.05060	392.42847	-393.66581	-283.95179	404.74094	-456.49621	-134.97139	280.50308	-393.24023	-196.05925	279.65307	-365.74346	-223.21462	763.00230	-775.20733	-181.95189	685.48323	-776.59461	-212.93860	377.09754	-805.75938	-264.16773	381.79142	-745.79084	-162.81981	261.37359	-822.09345	-99.20665	258.63074	-784.82418	-229.07827	618.17948	-391.93944	-296.45781	737.05320	-412.09741	-309.97965	618.48585	-400.82924	-266.49973	698.33630	-804.89937	-262.36707	576.48270	-822.40017	-209.07302	1038.75484	-399.42178	-205.28970	925.26525	-405.49706	-265.05031	902.24678	-415.09867	-315.20059	1034.05047	-437.95740	-305.45747	917.71389	-450.52574	-181.97308	1041.98017	-811.08828	-174.94229	903.99956	-794.89582	-292.62466	1038.88579	-793.49762	-285.34143	902.60511	-763.24840	-143.30677	1236.04338	-499.94086	-334.47059	1284.02007	-591.36995	-128.43042	1224.80472	-712.51050	-324.05077	1281.75018	-669.98266	-209.72028	1698.26977	-591.57627	-152.23622	1667.88434	-459.24685	-148.25165	1682.08175	-721.45938	-86.54604	1638.28788	-569.99870	-84.29046	1639.57308	-603.70651	-86.15278	1595.83234	-388.70808	-74.56682	1387.59241	-307.34652	-30.42708	1436.30114	-271.64595	47.72994	1449.11377	-326.84180	150.82066	1432.24963	-417.83691	170.29710	1412.42918	-389.63598	-107.79583	1634.37226	-816.14810	-70.91908	1432.45456	-924.12102	-43.73528	1497.10462	-951.74655	46.52315	1507.31585	-895.09890	132.36336	1506.49172	-804.63536	151.41640	1478.79073	-826.84084	-233.04115	1158.49212	-506.62412	-214.46756	1149.81384	-713.11692	-220.27511	1173.95298	-537.35444	-201.77763	1169.92374	-676.91010	
242	2.41000000	-249.92227	774.30479	-428.90874	-218.26954	718.70044	-415.29486	-243.95108	382.61382	-392.40628	-285.37086	394.16883	-454.17922	-134.28133	271.46398	-393.59594	-194.63483	270.36018	-364.77096	-222.28569	753.39050	-776.30146	-180.66416	675.57184	-776.61802	-214.30280	367.20142	-807.18324	-266.81366	372.32503	-748.48120	-164.25568	250.89612	-821.45111	-101.16340	248.34942	-782.85267	-226.98852	608.28431	-391.18850	-294.05187	727.88827	-409.44040	-308.11825	609.30196	-397.88627	-264.40208	689.44182	-806.96893	-260.97649	567.73919	-825.00914	-209.63072	1029.05939	-399.41148	-205.29592	915.48043	-405.25000	-265.30095	891.90903	-414.96103	-315.76582	1023.59115	-437.54771	-305.69140	907.46969	-449.88935	-182.71779	1032.72029	-811.43144	-175.06833	894.60729	-795.56857	-293.57919	1028.71381	-795.05658	-285.56753	892.78768	-764.17360	-144.30645	1225.94081	-500.32735	-335.70435	1274.12355	-591.11203	-129.93842	1215.63560	-712.78647	-325.26980	1271.87765	-670.05881	-211.84583	1688.74605	-591.03525	-154.07346	1657.88368	-458.04581	-150.39408	1672.49357	-721.11297	-89.05346	1628.80714	-570.82891	-86.58490	1630.26465	-603.18130	-88.85523	1584.35990	-387.92535	-80.12561	1374.83745	-309.05032	-35.14717	1422.25348	-272.87081	43.77913	1432.52661	-327.26820	147.89797	1412.37961	-416.85901	166.51090	1392.27725	-388.23694	-111.36903	1621.94466	-815.97911	-79.59099	1418.03215	-920.83716	-50.80643	1481.32689	-949.99091	40.54526	1489.19643	-894.33167	127.79313	1486.03838	-805.13322	145.49724	1457.51109	-827.40150	-233.96020	1148.32831	-507.10090	-215.69322	1140.42489	-713.65047	-221.48138	1164.37458	-537.74113	-203.05171	1160.40821	-677.18116	
243	2.42000000	-248.71750	763.70875	-427.71603	-215.70783	708.10784	-414.38462	-244.10863	371.60560	-391.40135	-287.08494	382.48818	-452.02349	-133.72383	261.65390	-394.29133	-193.20650	259.98823	-364.20117	-221.41567	742.81740	-777.42342	-179.39704	664.54795	-776.62705	-215.69606	356.35094	-808.78285	-269.39273	361.66164	-751.07812	-165.66944	239.57404	-821.03508	-102.76866	237.18539	-781.23837	-224.79643	597.53804	-390.59222	-291.34219	717.76325	-406.80822	-306.02452	599.60272	-394.41971	-262.30225	679.46983	-808.74805	-259.68830	557.83905	-827.30005	-209.93353	1018.60079	-399.47479	-205.05982	904.92485	-405.13892	-265.35748	880.64065	-414.54100	-316.15623	1012.34712	-437.12982	-305.78106	896.38147	-449.13348	-182.99749	1022.48210	-811.73433	-174.80410	884.06296	-796.06618	-294.03053	1017.59224	-796.68857	-285.61626	881.88951	-765.34165	-145.30447	1214.96210	-500.86817	-337.11615	1262.88527	-590.73998	-131.75801	1205.70349	-712.99562	-326.74079	1260.63154	-669.75957	-213.67429	1678.15829	-590.70254	-155.59506	1646.84219	-456.92611	-152.58784	1661.83916	-720.90027	-91.53401	1618.11896	-572.37667	-88.89435	1619.80125	-602.61014	-91.57351	1572.00791	-386.96707	-85.52602	1361.24837	-310.56355	-39.91269	1407.32244	-273.93483	39.84580	1415.33710	-327.64088	144.76050	1391.92163	-415.90021	162.55381	1371.66779	-386.63115	-114.94591	1608.89175	-816.12325	-87.96659	1402.92622	-917.70219	-57.64057	1464.83972	-948.18605	34.74245	1470.32443	-893.52360	123.22028	1464.73330	-805.54603	139.62400	1435.42471	-827.91246	-234.64706	1137.05812	-507.49606	-216.95603	1130.01351	-714.12701	-222.63366	1153.91634	-538.15707	-204.36023	1149.94722	-677.32978	
